<?xml version="1.0" encoding="UTF-8" standalone="no"?>
<!-- Created with Inkscape (http://www.inkscape.org/) -->
<svg xmlns:svg="http://www.w3.org/2000/svg" xmlns="http://www.w3.org/2000/svg" xmlns:xlink="http://www.w3.org/1999/xlink" version="1.0" width="800" height="800" viewBox="-21 -21 42 42" id="Test File">
  <defs id="defs2459"><radialGradient cx="-12" cy="-12" r="20" fx="-12" fy="-12" id="shine" gradientUnits="userSpaceOnUse">
  <stop id="stop2462" style="stop-color:#ffffff;stop-opacity:0.69999999" offset="0"/>
  <stop id="stop2464" style="stop-color:#ffffff;stop-opacity:0" offset="1"/>
</radialGradient>
<radialGradient cx="0.5" cy="0.5" r="0.5" id="grad">
  <stop id="stop2467" style="stop-color:#ffff00;stop-opacity:1" offset="0"/>
  <stop id="stop2469" style="stop-color:#ffff00;stop-opacity:1" offset="0.75"/>
  <stop id="stop2471" style="stop-color:#eeee00;stop-opacity:1" offset="0.94999999"/>
  <stop id="stop2473" style="stop-color:#e8e800;stop-opacity:1" offset="1"/>
</radialGradient>

	
	
	
	
	
	
	
	
	
	
	
	
	
	
	
	
	
	
	
	
	
	
	
	
	
	
	
</defs>
  <circle cx="0" cy="0" r="20" id="circle2475" style="fill:url(#grad);stroke:#000000;stroke-width:0.15000001"/>
  <g id="right">
    <ellipse cx="-6" cy="-7" rx="2.5" ry="4" id="ellipse2480" style="fill:#000000"/>
    <path d="M 10.6,2.7 C 11.067064,4.5127998 12.728934,5.7592023 14.6,5.7" id="path2482" style="fill:none;stroke:#000000;stroke-width:0.5;stroke-linecap:round"/>
  </g>
  <use transform="scale(-1,1)" id="use2484" x="0" y="0" width="42" height="42" xlink:href="#right"/>
  <path d="M -12,5 C -9.6846584,9.4924225 -5.0539753,12.315342 -2.5755484e-15,12.315342 C 5.0539753,12.315342 9.6846584,9.4924225 12,5 C 9.9814957,9.8444102 5.2481111,13 4.0516183e-16,13 C -5.2481111,13 -9.9814957,9.8444102 -12,5" id="path2486" style="fill:none;stroke:#000000;stroke-width:0.75"/>
  <g id="layer1">
    <path d="M -10.938502,-15.401478 C -10.708217,-14.58203 -9.6477346,-14.75051 -9.3225588,-15.401478 C -8.6129656,-16.822045 -11.356744,-16.88925 -10.938502,-15.401478 z" id="path2605" style="fill:#9c141c;fill-rule:evenodd"/>
    <path d="M -13.919871,-14.241781 C -13.992436,-14.171369 -14.06822,-14.104916 -14.139715,-14.033421 C -14.365965,-13.807171 -14.587269,-13.574617 -14.802528,-13.337796 C -15.017787,-13.100975 -15.22704,-12.859613 -15.430887,-12.61264 C -15.634735,-12.365667 -15.832777,-12.113016 -16.024793,-11.856312 C -16.21681,-11.599608 -16.40284,-11.338108 -16.582606,-11.072093 C -16.762371,-10.806078 -16.935589,-10.536532 -17.102684,-10.261624 C -17.235748,-10.042704 -17.361801,-9.8182082 -17.48659,-9.5938894 C -17.398794,-9.1766745 -17.20628,-8.8592663 -16.761434,-8.5422487 C -16.795973,-8.2400493 -16.689211,-7.7959166 -16.963231,-7.7334206 C -16.681618,-7.4090341 -15.965982,-7.5189067 -15.750809,-7.12803 C -15.958389,-6.662429 -16.447307,-6.4764336 -16.35784,-5.7138112 C -15.765645,-5.727592 -15.606862,-6.1763604 -15.347215,-6.5226394 C -14.962551,-6.4359099 -14.839097,-6.0862189 -14.33659,-6.117405 C -13.805511,-6.1772623 -14.178325,-5.334388 -13.529403,-5.5120144 C -13.736786,-6.1906918 -12.900557,-5.8260431 -12.518778,-5.9156081 C -12.218551,-5.7444907 -12.226863,-5.2662157 -12.115184,-4.9066237 C -11.75505,-5.3847969 -12.515303,-6.5440882 -11.1062,-6.3192019 C -11.065744,-7.086681 -10.25593,-7.0857418 -10.297371,-7.9352175 C -9.0587946,-7.6252276 -8.3039423,-6.8326781 -7.0653402,-6.5226394 C -7.7227668,-7.615714 -9.2280389,-7.8610066 -10.297371,-8.5422487 C -10.158327,-9.3545476 -10.490689,-9.6951892 -10.499168,-10.360062 C -10.087411,-10.823641 -8.8224643,-10.432972 -8.0759652,-10.561859 C -8.6013002,-10.979238 -9.5322213,-10.989835 -10.499168,-10.965452 C -11.067056,-11.217582 -11.166477,-11.793665 -10.902762,-12.379671 C -11.161004,-12.368577 -11.183583,-12.121 -11.509793,-12.177874 C -11.576874,-12.985537 -11.149921,-13.298801 -11.307996,-14.197484 C -11.847015,-14.063222 -12.046658,-13.591481 -12.316981,-13.188499 C -12.57086,-13.271235 -12.73114,-13.448425 -12.722215,-13.79389 C -12.879601,-13.749293 -12.956875,-13.625142 -12.924012,-13.390296 C -13.46582,-13.481674 -13.748983,-13.81671 -13.919871,-14.241781 z" id="path2607" style="fill:#9c141c;fill-rule:evenodd"/>
    <path d="M -7.9927649,-10.503231 C -8.0133257,-10.259115 -7.6991945,-10.379053 -7.9927649,-10.503231 L -7.9927649,-10.503231 z" id="path2615" style="fill:#9c141c;fill-rule:evenodd"/>
    <path d="M -5.5688863,-10.301247 C -5.6430432,-9.6883438 -4.9109662,-9.8819698 -4.5588938,-9.6952958 C -4.5296058,-10.263183 -5.053659,-10.277851 -5.5688863,-10.301247 z" id="path2617" style="fill:#9c141c;fill-rule:evenodd"/>
    <path d="M -8.3864026,-8.7513986 C -8.0887645,-7.9383606 -6.7533989,-7.7803089 -6.7075193,-8.9803283 C -6.6618122,-10.180447 -8.6841147,-9.5643874 -8.3864026,-8.7513986 z" id="path2621" style="fill:#9c141c;fill-rule:evenodd"/>
    <path d="M -6.9828216,-6.4633839 C -7.0033331,-6.2193172 -6.689202,-6.339255 -6.9828216,-6.4633839 L -6.9828216,-6.4633839 z" id="path2625" style="fill:#9c141c;fill-rule:evenodd"/>
    <path d="M -10.82066,-6.0594658 C -10.832099,-6.1826332 -10.85086,-6.2985279 -11.022644,-6.2614495 C -11.011205,-6.1382328 -10.992443,-6.0223874 -10.82066,-6.0594658 z" id="path2627" style="fill:#9c141c;fill-rule:evenodd"/>
    <path d="M -10.618676,-5.8574081 C -10.630115,-5.9806248 -10.648876,-6.0965195 -10.82066,-6.0594411 C -10.809221,-5.9362984 -10.790484,-5.8202804 -10.618676,-5.8574081 z" id="path2629" style="fill:#9c141c;fill-rule:evenodd"/>
    <path d="M -5.9728538,-5.2514323 C -5.8940621,-4.9201425 -5.294225,-5.0946133 -5.1649189,-5.453416 C -5.0356128,-5.8123913 -6.0516454,-5.5827221 -5.9728538,-5.2514323 z" id="path2631" style="fill:#9c141c;fill-rule:evenodd"/>
    <path d="M -10.618676,-5.8574081 C -10.639188,-5.6133414 -10.325056,-5.7332299 -10.618676,-5.8574081 L -10.618676,-5.8574081 z" id="path2633" style="fill:#9c141c;fill-rule:evenodd"/>
    <path d="M -16.274368,-5.6554244 C -16.518509,-5.6759358 -16.398546,-5.361854 -16.274368,-5.6554244 L -16.274368,-5.6554244 z" id="path2635" style="fill:#9c141c;fill-rule:evenodd"/>
    <path d="M -3.5489752,-4.4434235 C -3.4701835,-4.5836509 -3.3921561,-4.5895184 -3.5489752,-4.8474156 C -3.7057942,-5.1053127 -5.216666,-5.5831658 -4.9629352,-4.4434235 C -4.8274658,-3.7091277 -3.6277668,-4.3033933 -3.5489752,-4.4434235 z" id="path2637" style="fill:#9c141c;fill-rule:evenodd"/>
    <path d="M -13.446596,-4.8474156 C -13.516192,-5.0912604 -13.984011,-5.0107924 -14.052547,-4.8474156 C -14.235696,-4.4105854 -13.312828,-4.3793744 -13.446596,-4.8474156 z" id="path2639" style="fill:#9c141c;fill-rule:evenodd"/>
    <path d="M -12.032636,-2.62557 C -12.391439,-2.4120733 -12.498532,-1.8121621 -12.032636,-1.8176598 C -11.566715,-1.8230095 -11.673833,-2.8390914 -12.032636,-2.62557 z" id="path2645" style="fill:#9c141c;fill-rule:evenodd"/>
    <path d="M -17.688402,-2.62557 C -18.007119,-2.2710323 -18.615856,-2.2064162 -18.698469,-1.6156514 C -17.952882,-1.5433436 -17.854269,-2.1179852 -17.688402,-2.62557 z" id="path2647" style="fill:#9c141c;fill-rule:evenodd"/>
    <path d="M -7.7907565,-1.8176598 C -7.7702697,-2.0617758 -8.0844008,-1.9417887 -7.7907565,-1.8176598 L -7.7907565,-1.8176598 z" id="path2649" style="fill:#9c141c;fill-rule:evenodd"/>
    <path d="M -7.7907565,-1.8176598 C -7.7661033,-1.3035418 -7.3141114,-0.81895842 -6.9828216,-1.0097003 C -6.6515565,-1.200171 -7.1584018,-1.9112187 -7.7907565,-1.8176598 z" id="path2651" style="fill:#9c141c;fill-rule:evenodd"/>
    <path d="M -6.5788789,0.00036620343 C -6.3990091,0.21371505 -6.1863012,0.20779828 -5.9728538,0.00036620343 C -5.7594309,-0.20711518 -5.677459,-1.1513083 -6.3768212,-1.0097003 C -6.8908405,-0.98921352 -6.7586747,-0.21303195 -6.5788789,0.00036620343 z" id="path2653" style="fill:#9c141c;fill-rule:evenodd"/>
  </g>
</svg>